<?xml version="1.0" encoding="UTF-8" standalone="no"?>
<!-- Created with Inkscape (http://www.inkscape.org/) -->

<svg
   xmlns:dc="http://purl.org/dc/elements/1.1/"
   xmlns:cc="http://creativecommons.org/ns#"
   xmlns:rdf="http://www.w3.org/1999/02/22-rdf-syntax-ns#"
   xmlns:svg="http://www.w3.org/2000/svg"
   xmlns="http://www.w3.org/2000/svg"
   xmlns:sodipodi="http://sodipodi.sourceforge.net/DTD/sodipodi-0.dtd"
   xmlns:inkscape="http://www.inkscape.org/namespaces/inkscape"
   width="32"
   height="32"
   id="svg12564"
   version="1.1"
   inkscape:version="0.91 r13725"
   viewBox="0 0 32 32"
   sodipodi:docname="favicon.svg"
   inkscape:export-filename="/home/mholtgre/Development/tool/flowcelltool/flowcelltool/static/images/favicon.png"
   inkscape:export-xdpi="109.22"
   inkscape:export-ydpi="109.22">
  <defs
     id="defs12566" />
  <sodipodi:namedview
     id="base"
     pagecolor="#ffffff"
     bordercolor="#666666"
     borderopacity="1.0"
     inkscape:pageopacity="0.0"
     inkscape:pageshadow="2"
     inkscape:zoom="17.718648"
     inkscape:cx="7.406395"
     inkscape:cy="9.1757338"
     inkscape:current-layer="layer1"
     showgrid="true"
     inkscape:grid-bbox="true"
     inkscape:document-units="px"
     inkscape:window-width="1920"
     inkscape:window-height="1149"
     inkscape:window-x="0"
     inkscape:window-y="25"
     inkscape:window-maximized="1"
     inkscape:snap-to-guides="false"
     inkscape:snap-bbox="true"
     inkscape:bbox-nodes="true"
     showborder="true"
     borderlayer="false">
    <inkscape:grid
       type="xygrid"
       id="grid17044" />
  </sodipodi:namedview>
  <metadata
     id="metadata12569">
    <rdf:RDF>
      <cc:Work
         rdf:about="">
        <dc:format>image/svg+xml</dc:format>
        <dc:type
           rdf:resource="http://purl.org/dc/dcmitype/StillImage" />
        <dc:title />
      </cc:Work>
    </rdf:RDF>
  </metadata>
  <g
     id="layer1"
     inkscape:label="Layer 1"
     inkscape:groupmode="layer"
     style="display:inline">
    <rect
       style="opacity:1;fill:#eeeeec;fill-opacity:1;stroke:#eeeeec;stroke-width:1;stroke-linejoin:miter;stroke-miterlimit:4;stroke-dasharray:none;stroke-dashoffset:0;stroke-opacity:1"
       id="rect12664"
       width="30"
       height="30"
       x="1"
       y="1"
       ry="3" />
    <g
       transform="matrix(0.03902323,-0.02265971,0.02312418,0.03982197,-7.5376106,-6.5322125)"
       id="Layer_1_1_"
       style="fill:#8f5902;stroke:#8f5902;stroke-width:32.90574265;stroke-miterlimit:4;stroke-dasharray:none;stroke-opacity:1">
      <g
         id="g6"
         style="fill:#8f5902;stroke:#8f5902;stroke-width:32.90574265;stroke-miterlimit:4;stroke-dasharray:none;stroke-opacity:1">
        <g
           id="g8"
           style="fill:#8f5902;stroke:#8f5902;stroke-width:32.90574265;stroke-miterlimit:4;stroke-dasharray:none;stroke-opacity:1">
          <line
             class="st0"
             x1="310.79999"
             y1="165.8"
             x2="649.20001"
             y2="165.8"
             id="line10"
             style="fill:#8f5902;stroke:#8f5902;stroke-width:32.90574265;stroke-miterlimit:4;stroke-dasharray:none;stroke-opacity:1" />
          <line
             class="st0"
             x1="336.79999"
             y1="231.5"
             x2="623.20001"
             y2="231.5"
             id="line12"
             style="fill:#8f5902;stroke:#8f5902;stroke-width:32.90574265;stroke-miterlimit:4;stroke-dasharray:none;stroke-opacity:1" />
          <line
             class="st0"
             x1="336.79999"
             y1="382.10001"
             x2="623.20001"
             y2="382.10001"
             id="line14"
             style="fill:#8f5902;stroke:#8f5902;stroke-width:32.90574265;stroke-miterlimit:4;stroke-dasharray:none;stroke-opacity:1" />
          <line
             class="st0"
             x1="316.5"
             y1="447.79999"
             x2="643.5"
             y2="447.79999"
             id="line16"
             style="fill:#8f5902;stroke:#8f5902;stroke-width:32.90574265;stroke-miterlimit:4;stroke-dasharray:none;stroke-opacity:1" />
          <line
             class="st0"
             x1="316.5"
             y1="513.5"
             x2="643.5"
             y2="513.5"
             id="line18"
             style="fill:#8f5902;stroke:#8f5902;stroke-width:32.90574265;stroke-miterlimit:4;stroke-dasharray:none;stroke-opacity:1" />
          <line
             class="st0"
             x1="336.79999"
             y1="579.09998"
             x2="623.20001"
             y2="579.09998"
             id="line20"
             style="fill:#8f5902;stroke:#8f5902;stroke-width:32.90574265;stroke-miterlimit:4;stroke-dasharray:none;stroke-opacity:1" />
          <line
             class="st0"
             x1="336.79999"
             y1="728.29999"
             x2="623.20001"
             y2="728.29999"
             id="line22"
             style="fill:#8f5902;stroke:#8f5902;stroke-width:32.90574265;stroke-miterlimit:4;stroke-dasharray:none;stroke-opacity:1" />
          <line
             class="st0"
             x1="310.79999"
             y1="794"
             x2="649.20001"
             y2="794"
             id="line24"
             style="fill:#8f5902;stroke:#8f5902;stroke-width:32.90574265;stroke-miterlimit:4;stroke-dasharray:none;stroke-opacity:1" />
        </g>
        <path
           inkscape:connector-curvature="0"
           class="st1"
           d="M 480,289.5 C 403.8,250 320.2,209.3 320.2,133 l -36.5,0 c 0,86 81,131.3 163.1,173.5 4,-2 7.9,-4.1 11.9,-6.1 7.2,-3.6 14.3,-7.3 21.3,-10.9 z"
           id="path26"
           style="fill:#8f5902;stroke:#8f5902;stroke-width:32.90574265;stroke-miterlimit:4;stroke-dasharray:none;stroke-opacity:1" />
        <path
           inkscape:connector-curvature="0"
           class="st2"
           d="m 676.3,827 -36.5,0 c 0,-83.4 -96.4,-124.2 -181,-167.4 -86.1,-44 -175,-89.5 -175,-179.6 0,-90.1 89,-135.6 175,-179.6 84.6,-43.2 181,-84 181,-167.4 l 36.5,0 c 0,90.1 -89,135.6 -175,179.6 -84.6,43.2 -181,84 -181,167.4 0,83.4 96.4,124.2 181,167.4 86,44 175,89.5 175,179.6 z"
           id="path28"
           style="fill:#8f5902;stroke:#8f5902;stroke-width:32.90574265;stroke-miterlimit:4;stroke-dasharray:none;stroke-opacity:1" />
        <path
           inkscape:connector-curvature="0"
           class="st1"
           d="m 676.3,480 c 0,-86 -81,-131.3 -163.1,-173.5 -4,2 -7.9,4.1 -11.9,6.1 -7.1,3.6 -14.2,7.3 -21.2,10.9 76.1,39.5 159.7,80.2 159.7,156.5 0,76.3 -83.5,117 -159.8,156.5 7,3.6 14.1,7.3 21.2,10.9 4,2 7.9,4.1 11.9,6.1 C 595.3,611.3 676.3,566 676.3,480 Z"
           id="path30"
           style="fill:#8f5902;stroke:#8f5902;stroke-width:32.90574265;stroke-miterlimit:4;stroke-dasharray:none;stroke-opacity:1" />
        <path
           inkscape:connector-curvature="0"
           class="st1"
           d="M 446.9,653.5 C 364.7,695.7 283.7,741 283.7,827 l 36.5,0 c 0,-76.3 83.5,-117 159.8,-156.5 -7,-3.6 -14.1,-7.3 -21.2,-10.9 -4,-2 -8,-4.1 -11.9,-6.1 z"
           id="path32"
           style="fill:#8f5902;stroke:#8f5902;stroke-width:32.90574265;stroke-miterlimit:4;stroke-dasharray:none;stroke-opacity:1" />
        <path
           inkscape:connector-curvature="0"
           class="st1"
           d="m 480,323.5 c 7,-3.6 14.1,-7.3 21.2,-10.9 4,-2 7.9,-4.1 11.9,-6.1 -4,-2 -7.9,-4.1 -11.9,-6.1 -7.1,-3.6 -14.2,-7.3 -21.2,-10.9 -7,3.6 -14.1,7.3 -21.2,10.9 -4,2 -7.9,4.1 -11.9,6.1 4,2 7.9,4.1 11.9,6.1 7.1,3.6 14.2,7.3 21.2,10.9 z"
           id="path34"
           style="fill:#8f5902;stroke:#8f5902;stroke-width:32.90574265;stroke-miterlimit:4;stroke-dasharray:none;stroke-opacity:1" />
      </g>
    </g>
    <path
       inkscape:connector-curvature="0"
       d="m 17.896152,12.919237 -2.59551,6.040491 C 13.324452,20.290905 8.9004033,18.420323 8.5056846,16.040037 L 11.100052,10 c -0.747279,0.06981 -1.4781727,0.247223 -2.1697871,0.523114 -1.8343755,0.731753 -3.3892038,2.157638 -4.2321202,4.11713 -0.9298671,2.164068 -0.7967864,4.517314 0.1672046,6.478049 0.5086084,1.035452 0.5379245,2.243515 0.08228,3.303924 L -1.7025501,39.89908 c -0.3978263,0.925857 -0.3832015,1.927419 -0.036053,2.797661 0.75869873,1.901937 2.93263,2.813271 4.8243054,2.01221 0.8365962,-0.354964 1.5434497,-1.021855 1.9314187,-1.922527 L 11.668447,27.309102 c 0.454497,-1.059952 1.352642,-1.869504 2.453411,-2.214371 2.08589,-0.650249 3.884159,-2.17457 4.813793,-4.335892 0.842003,-1.961782 0.805066,-4.070679 0.07286,-5.906203 -0.275423,-0.690472 -0.649809,-1.342792 -1.112357,-1.933399 z M 2.1378047,42.432543 c -0.633209,0.252612 -1.34923382,-0.05507 -1.60182818,-0.68828 -0.25259487,-0.633218 0.0562111,-1.34969 0.68828238,-1.601827 0.6320707,-0.252144 1.3492315,0.05507 1.6018267,0.688279 0.252596,0.633217 -0.055066,1.349235 -0.6882809,1.601828 z"
       id="path4"
       style="fill:#2e3436" />
  </g>
</svg>
